<svg width="127" height="30" viewBox="0 0 127 30" fill="none" xmlns="http://www.w3.org/2000/svg">
<g clip-path="url(#clip0_1164_528)">
<path d="M11.68 21H9.76V14.94H3.72V21H1.8V7.4L3.72 7.3V13.4H9.76V7.4H11.68V21ZM17.1366 18.2C17.1366 18.44 17.1966 18.68 17.3166 18.92C17.4366 19.1467 17.6166 19.34 17.8566 19.5C18.0966 19.6467 18.3966 19.72 18.7566 19.72C19.2499 19.72 19.7099 19.6 20.1366 19.36C20.5766 19.12 20.9632 18.8133 21.2966 18.44V16.48H18.9366C18.3499 16.48 17.9032 16.6533 17.5966 17C17.2899 17.3467 17.1366 17.7467 17.1366 18.2ZM16.5366 13.42L15.9966 11.9C16.2499 11.7267 16.5832 11.58 16.9966 11.46C17.4099 11.3267 17.8299 11.2267 18.2566 11.16C18.6832 11.08 19.0299 11.04 19.2966 11.04C20.0432 11.04 20.7099 11.1933 21.2966 11.5C21.8966 11.7933 22.3632 12.2 22.6966 12.72C23.0432 13.2267 23.2166 13.7933 23.2166 14.42V21H21.8766L21.6366 20.08C21.3032 20.3733 20.8766 20.64 20.3566 20.88C19.8366 21.12 19.3166 21.24 18.7966 21.24C17.6499 21.24 16.7966 20.9533 16.2366 20.38C15.6899 19.8067 15.4166 19.08 15.4166 18.2C15.4166 17.2267 15.7432 16.4867 16.3966 15.98C17.0632 15.46 17.9232 15.2 18.9766 15.2H21.2766V15.1C21.2766 14.4333 21.1432 13.88 20.8766 13.44C20.6099 12.9867 20.0966 12.76 19.3366 12.76C18.7632 12.76 18.2432 12.8333 17.7766 12.98C17.3099 13.1133 16.8966 13.26 16.5366 13.42ZM28.4798 21H26.5398V11.3H28.4798V21ZM27.4798 9.56C27.1465 9.56 26.8665 9.44667 26.6398 9.22C26.4132 8.99333 26.2998 8.70667 26.2998 8.36C26.2998 8.02667 26.4132 7.74667 26.6398 7.52C26.8665 7.28 27.1465 7.16 27.4798 7.16C27.8132 7.16 28.0998 7.27333 28.3398 7.5C28.5798 7.72667 28.6998 8.01333 28.6998 8.36C28.6998 8.69333 28.5798 8.98 28.3398 9.22C28.0998 9.44667 27.8132 9.56 27.4798 9.56ZM33.7958 21H31.8758V11.3H32.9558L33.5758 12.88C33.8291 12.6667 34.1424 12.44 34.5158 12.2C34.8891 11.9467 35.2758 11.7333 35.6758 11.56C36.0891 11.3867 36.4691 11.3 36.8158 11.3L37.2358 12.84C36.8891 12.84 36.5024 12.9267 36.0758 13.1C35.6624 13.26 35.2558 13.4733 34.8558 13.74C34.4691 13.9933 34.1158 14.2733 33.7958 14.58V21ZM39.4736 20.26L39.9136 18.74C40.1669 18.86 40.4736 18.9867 40.8336 19.12C41.2069 19.2533 41.6069 19.3667 42.0336 19.46C42.4603 19.5533 42.8736 19.6 43.2736 19.6C43.9269 19.6 44.4736 19.52 44.9136 19.36C45.3536 19.2 45.6869 18.9733 45.9136 18.68C46.1403 18.3733 46.2536 18.0267 46.2536 17.64C46.2536 17.1867 46.1136 16.8 45.8336 16.48C45.5669 16.1467 45.1736 15.84 44.6536 15.56C44.1336 15.2667 43.5003 14.96 42.7536 14.64C42.1669 14.3733 41.6536 14.1133 41.2136 13.86C40.7869 13.5933 40.4203 13.3067 40.1136 13C39.8203 12.6933 39.6003 12.3467 39.4536 11.96C39.3069 11.5733 39.2336 11.12 39.2336 10.6C39.2336 9.93333 39.4136 9.34 39.7736 8.82C40.1336 8.28667 40.6469 7.86667 41.3136 7.56C41.9803 7.24 42.7736 7.08 43.6936 7.08C44.3736 7.08 45.0269 7.17333 45.6536 7.36C46.2936 7.54667 46.8403 7.75333 47.2936 7.98L46.6536 9.5C46.4269 9.38 46.1736 9.26667 45.8936 9.16C45.6269 9.05333 45.3203 8.96667 44.9736 8.9C44.6403 8.82 44.2603 8.78 43.8336 8.78C43.0736 8.78 42.4336 8.92667 41.9136 9.22C41.4069 9.51333 41.1536 9.96 41.1536 10.56C41.1536 11.0133 41.2803 11.4067 41.5336 11.74C41.8003 12.06 42.1936 12.3667 42.7136 12.66C43.2469 12.94 43.9003 13.26 44.6736 13.62C45.2336 13.8733 45.7269 14.1333 46.1536 14.4C46.5936 14.6533 46.9603 14.9333 47.2536 15.24C47.5603 15.5467 47.7936 15.8933 47.9536 16.28C48.1136 16.6667 48.1936 17.1067 48.1936 17.6C48.1936 18.3067 48.0003 18.94 47.6136 19.5C47.2403 20.0467 46.6869 20.48 45.9536 20.8C45.2336 21.1067 44.3469 21.26 43.2936 21.26C43.0136 21.26 42.6803 21.2267 42.2936 21.16C41.9203 21.1067 41.5403 21.0333 41.1536 20.94C40.7803 20.8467 40.4403 20.74 40.1336 20.62C39.8269 20.5 39.6069 20.38 39.4736 20.26ZM52.9252 21H50.9852V11.3H52.9252V21ZM51.9252 9.56C51.5918 9.56 51.3118 9.44667 51.0852 9.22C50.8585 8.99333 50.7452 8.70667 50.7452 8.36C50.7452 8.02667 50.8585 7.74667 51.0852 7.52C51.3118 7.28 51.5918 7.16 51.9252 7.16C52.2585 7.16 52.5452 7.27333 52.7852 7.5C53.0252 7.72667 53.1452 8.01333 53.1452 8.36C53.1452 8.69333 53.0252 8.98 52.7852 9.22C52.5452 9.44667 52.2585 9.56 51.9252 9.56ZM55.8011 20.38L56.4011 19.04C56.6811 19.1733 56.9611 19.2933 57.2411 19.4C57.5344 19.4933 57.8278 19.5667 58.1211 19.62C58.4144 19.6733 58.7078 19.7 59.0011 19.7C59.4278 19.7 59.7944 19.6467 60.1011 19.54C60.4211 19.4333 60.6678 19.2867 60.8411 19.1C61.0144 18.9133 61.1011 18.7 61.1011 18.46C61.1011 18.2067 61.0078 17.98 60.8211 17.78C60.6344 17.58 60.3811 17.4 60.0611 17.24C59.7411 17.0667 59.3678 16.9133 58.9411 16.78C58.4344 16.6067 57.9344 16.3933 57.4411 16.14C56.9611 15.8867 56.5611 15.5733 56.2411 15.2C55.9211 14.8267 55.7611 14.38 55.7611 13.86C55.7611 12.98 56.0878 12.2933 56.7411 11.8C57.4078 11.2933 58.3078 11.04 59.4411 11.04C59.7211 11.04 60.0478 11.08 60.4211 11.16C60.8078 11.2267 61.1944 11.3267 61.5811 11.46C61.9678 11.5933 62.2944 11.76 62.5611 11.96L61.9611 13.26C61.5878 13.0867 61.1944 12.9333 60.7811 12.8C60.3811 12.6667 59.9211 12.6 59.4011 12.6C58.8944 12.6 58.4744 12.72 58.1411 12.96C57.8211 13.1867 57.6611 13.4733 57.6611 13.82C57.6744 14.1133 57.8611 14.3733 58.2211 14.6C58.5944 14.8133 59.0744 15.02 59.6611 15.22C60.1944 15.4067 60.7078 15.6467 61.2011 15.94C61.7078 16.22 62.1211 16.56 62.4411 16.96C62.7744 17.36 62.9411 17.8267 62.9411 18.36C62.9411 19.2667 62.6011 19.98 61.9211 20.5C61.2544 21.0067 60.2811 21.26 59.0011 21.26C58.7344 21.26 58.4011 21.2267 58.0011 21.16C57.6011 21.0933 57.2011 20.9933 56.8011 20.86C56.4144 20.7267 56.0811 20.5667 55.8011 20.38ZM69.8991 11.42L70.4991 12.88H68.1391V18C68.1391 18.4933 68.2457 18.9 68.4591 19.22C68.6857 19.5267 69.0391 19.68 69.5191 19.68C69.6791 19.68 69.8391 19.66 69.9991 19.62C70.1724 19.5667 70.3257 19.5133 70.4591 19.46L70.9591 20.92C70.8524 20.9733 70.7057 21.0333 70.5191 21.1C70.3324 21.1667 70.1324 21.22 69.9191 21.26C69.7191 21.3133 69.5191 21.34 69.3191 21.34C68.6924 21.34 68.1457 21.2267 67.6791 21C67.2124 20.76 66.8524 20.4133 66.5991 19.96C66.3457 19.5067 66.2191 18.9533 66.2191 18.3V12.88H64.8591L64.8391 11.42H66.2191V9L68.1391 8.56V11.42H69.8991ZM81.8355 16.58H74.9555C75.0088 17.1667 75.1488 17.6933 75.3755 18.16C75.6155 18.6267 75.9688 18.9933 76.4355 19.26C76.9021 19.5133 77.4955 19.64 78.2155 19.64C78.7888 19.64 79.2821 19.56 79.6955 19.4C80.1221 19.24 80.6021 19.0333 81.1355 18.78L81.7355 20.18C81.4155 20.3667 81.0688 20.5467 80.6955 20.72C80.3221 20.88 79.9288 21.0067 79.5155 21.1C79.1021 21.1933 78.6688 21.24 78.2155 21.24C77.0688 21.24 76.1021 21.0267 75.3155 20.6C74.5288 20.1733 73.9355 19.58 73.5355 18.82C73.1488 18.0467 72.9555 17.1533 72.9555 16.14C72.9555 15.1267 73.1421 14.24 73.5155 13.48C73.8888 12.72 74.4221 12.1267 75.1155 11.7C75.8088 11.26 76.6355 11.04 77.5955 11.04C78.6088 11.04 79.4221 11.2867 80.0355 11.78C80.6621 12.2733 81.1155 12.9267 81.3955 13.74C81.6888 14.5533 81.8355 15.4333 81.8355 16.38V16.58ZM74.9955 15.28H79.9755C79.8955 14.7467 79.7555 14.2867 79.5555 13.9C79.3555 13.5133 79.0888 13.2133 78.7555 13C78.4355 12.7867 78.0288 12.68 77.5355 12.68C77.0421 12.68 76.6155 12.7867 76.2555 13C75.8955 13.2133 75.6088 13.5133 75.3955 13.9C75.1955 14.2867 75.0621 14.7467 74.9955 15.28ZM86.5536 21H84.6336V11.3H85.9736L86.3136 12.58C86.6469 12.2733 87.0136 12 87.4136 11.76C87.8136 11.52 88.2269 11.3333 88.6536 11.2C89.0803 11.0533 89.4936 10.98 89.8936 10.98C90.6003 10.98 91.1736 11.14 91.6136 11.46C92.0669 11.7667 92.4003 12.1933 92.6136 12.74C92.8269 13.2867 92.9336 13.9067 92.9336 14.6V21H91.0136V14.78C91.0136 14.34 90.9669 13.96 90.8736 13.64C90.7803 13.32 90.6203 13.0733 90.3936 12.9C90.1803 12.7133 89.8803 12.62 89.4936 12.62C89.2003 12.62 88.8869 12.6933 88.5536 12.84C88.2203 12.9733 87.8803 13.16 87.5336 13.4C87.2003 13.6267 86.8736 13.88 86.5536 14.16V21ZM92.7736 14.16L92.5336 12.58C92.8669 12.2733 93.2336 12 93.6336 11.76C94.0336 11.52 94.4469 11.3333 94.8736 11.2C95.3003 11.0533 95.7136 10.98 96.1136 10.98C96.8203 10.98 97.3936 11.14 97.8336 11.46C98.2869 11.7667 98.6203 12.1933 98.8336 12.74C99.0469 13.2867 99.1536 13.9067 99.1536 14.6V21H97.2336V14.78C97.2336 14.34 97.1869 13.96 97.0936 13.64C97.0003 13.32 96.8403 13.0733 96.6136 12.9C96.4003 12.7133 96.1003 12.62 95.7136 12.62C95.4203 12.62 95.1069 12.6933 94.7736 12.84C94.4403 12.9733 94.1003 13.16 93.7536 13.4C93.4203 13.6267 93.0936 13.88 92.7736 14.16Z" fill="#B8952E"/>
<g clip-path="url(#clip1_1164_528)">
<path d="M119.043 15.2661C117.823 15.7937 117.264 17.196 117.793 18.3982C118.323 19.6004 119.741 20.1473 120.96 19.6197C122.18 19.0921 122.739 17.6898 122.21 16.4876C121.68 15.2854 120.262 14.7385 119.043 15.2661Z" stroke="#B8952E" stroke-width="1.5948" stroke-linecap="round" stroke-linejoin="round"/>
<path d="M117.763 16.5797L113.668 15" stroke="#B8952E" stroke-width="1.5948" stroke-linecap="round" stroke-linejoin="round"/>
<path d="M110.336 23.3522L115.283 10.9491" stroke="#B8952E" stroke-width="1.5948" stroke-linecap="round" stroke-linejoin="round"/>
<path d="M115.207 6.55901C113.988 7.08661 113.428 8.4889 113.958 9.69111C114.488 10.8933 115.905 11.4402 117.125 10.9126C118.344 10.385 118.904 8.98269 118.374 7.78049C117.845 6.57828 116.427 6.03141 115.207 6.55901Z" stroke="#B8952E" stroke-width="1.5948" stroke-linecap="round" stroke-linejoin="round"/>
<path d="M110.712 13.8599L105.223 11.7427" stroke="#B8952E" stroke-width="1.5948" stroke-linecap="round" stroke-linejoin="round"/>
</g>
</g>
<defs>
<clipPath id="clip0_1164_528">
<rect width="126.335" height="30" fill="white"/>
</clipPath>
<clipPath id="clip1_1164_528">
<rect width="19.2471" height="19.0288" fill="white" transform="matrix(-0.917788 0.397071 -0.403106 -0.915153 126.335 19.8859)"/>
</clipPath>
</defs>
</svg>
